<svg width="1587" height="1080" viewBox="0 0 1587 1080" fill="none" xmlns="http://www.w3.org/2000/svg">
<path d="M1292.46 279.555C1339.06 370.68 1324.64 482.198 1263.53 588.88C1202.43 695.558 1094.66 797.339 954.711 868.908C814.758 940.477 669.154 968.261 546.895 955.351C424.631 942.44 325.78 888.843 279.181 797.718C232.582 706.593 246.998 595.075 308.105 488.392C369.209 381.714 476.973 279.934 616.926 208.365C756.88 136.796 902.483 109.012 1024.74 121.922C1147.01 134.833 1245.86 188.429 1292.46 279.555Z" stroke="#73E4A0"/>
<path d="M1384.49 226.419C1439.91 334.8 1423.98 466.795 1353.3 592.633C1282.63 718.468 1157.23 838.088 993.843 921.638C830.46 1005.19 660.069 1036.83 516.675 1020.46C373.276 1004.1 256.936 939.745 201.513 831.364C146.09 722.983 162.02 590.988 232.701 465.149C303.379 339.315 428.779 219.695 592.162 136.145C755.545 52.5955 925.935 20.9557 1069.33 37.3187C1212.73 53.6822 1329.07 118.038 1384.49 226.419Z" stroke="url(#paint0_linear)"/>
<defs>
<linearGradient id="paint0_linear" x1="591.934" y1="135.7" x2="1121.74" y2="900.162" gradientUnits="userSpaceOnUse">
<stop stop-color="#FFAA85"/>
<stop offset="1" stop-color="#B3D075"/>
</linearGradient>
</defs>
</svg>
