<svg width="97" height="111" viewBox="0 0 97 111" fill="none" xmlns="http://www.w3.org/2000/svg">
<path d="M7.9307 15.1161C11.9125 15.1161 15.1405 11.8931 15.1405 7.91728C15.1405 3.94147 11.9125 0.718445 7.9307 0.718445C3.94886 0.718445 0.720947 3.94147 0.720947 7.91728C0.720947 11.8931 3.94886 15.1161 7.9307 15.1161Z" fill="#006E78" stroke="white" stroke-miterlimit="10"/>
<path d="M48.2477 15.1161C52.2295 15.1161 55.4574 11.8931 55.4574 7.91728C55.4574 3.94147 52.2295 0.718445 48.2477 0.718445C44.2658 0.718445 41.0379 3.94147 41.0379 7.91728C41.0379 11.8931 44.2658 15.1161 48.2477 15.1161Z" fill="#006E78" stroke="white" stroke-miterlimit="10"/>
<path d="M88.5646 15.1161C92.5464 15.1161 95.7744 11.8931 95.7744 7.91728C95.7744 3.94147 92.5464 0.718445 88.5646 0.718445C84.5828 0.718445 81.3549 3.94147 81.3549 7.91728C81.3549 11.8931 84.5828 15.1161 88.5646 15.1161Z" fill="#006E78" stroke="white" stroke-miterlimit="10"/>
<path d="M7.9307 46.7134C11.9125 46.7134 15.1405 43.4904 15.1405 39.5146C15.1405 35.5388 11.9125 32.3157 7.9307 32.3157C3.94886 32.3157 0.720947 35.5388 0.720947 39.5146C0.720947 43.4904 3.94886 46.7134 7.9307 46.7134Z" fill="#006E78" stroke="white" stroke-miterlimit="10"/>
<path d="M48.2477 46.7134C52.2295 46.7134 55.4574 43.4904 55.4574 39.5146C55.4574 35.5388 52.2295 32.3157 48.2477 32.3157C44.2658 32.3157 41.0379 35.5388 41.0379 39.5146C41.0379 43.4904 44.2658 46.7134 48.2477 46.7134Z" fill="#006E78" stroke="white" stroke-miterlimit="10"/>
<path d="M88.5646 46.7134C92.5464 46.7134 95.7744 43.4904 95.7744 39.5146C95.7744 35.5388 92.5464 32.3157 88.5646 32.3157C84.5828 32.3157 81.3549 35.5388 81.3549 39.5146C81.3549 43.4904 84.5828 46.7134 88.5646 46.7134Z" fill="#006E78" stroke="white" stroke-miterlimit="10"/>
<path d="M8.4354 78.6699C12.4172 78.6699 15.6452 75.4469 15.6452 71.4711C15.6452 67.4952 12.4172 64.2722 8.4354 64.2722C4.45356 64.2722 1.22565 67.4952 1.22565 71.4711C1.22565 75.4469 4.45356 78.6699 8.4354 78.6699Z" fill="#006E78" stroke="white" stroke-miterlimit="10"/>
<path d="M48.7524 78.6699C52.7342 78.6699 55.9621 75.4469 55.9621 71.4711C55.9621 67.4952 52.7342 64.2722 48.7524 64.2722C44.7705 64.2722 41.5426 67.4952 41.5426 71.4711C41.5426 75.4469 44.7705 78.6699 48.7524 78.6699Z" fill="#006E78" stroke="white" stroke-miterlimit="10"/>
<path d="M89.0693 78.6699C93.0511 78.6699 96.279 75.4469 96.279 71.4711C96.279 67.4952 93.0511 64.2722 89.0693 64.2722C85.0874 64.2722 81.8595 67.4952 81.8595 71.4711C81.8595 75.4469 85.0874 78.6699 89.0693 78.6699Z" fill="#006E78" stroke="white" stroke-miterlimit="10"/>
<path d="M8.4354 110.282C12.4172 110.282 15.6452 107.059 15.6452 103.083C15.6452 99.1069 12.4172 95.8839 8.4354 95.8839C4.45356 95.8839 1.22565 99.1069 1.22565 103.083C1.22565 107.059 4.45356 110.282 8.4354 110.282Z" fill="#006E78" stroke="white" stroke-miterlimit="10"/>
<path d="M48.7524 110.282C52.7342 110.282 55.9621 107.059 55.9621 103.083C55.9621 99.1069 52.7342 95.8839 48.7524 95.8839C44.7705 95.8839 41.5426 99.1069 41.5426 103.083C41.5426 107.059 44.7705 110.282 48.7524 110.282Z" fill="#006E78" stroke="white" stroke-miterlimit="10"/>
<path d="M89.0693 110.282C93.0511 110.282 96.279 107.059 96.279 103.083C96.279 99.1069 93.0511 95.8839 89.0693 95.8839C85.0874 95.8839 81.8595 99.1069 81.8595 103.083C81.8595 107.059 85.0874 110.282 89.0693 110.282Z" fill="#006E78" stroke="white" stroke-miterlimit="10"/>
</svg>
