<svg width="80" height="80" viewBox="0 0 80 80" fill="none" xmlns="http://www.w3.org/2000/svg">
<g clip-path="url(#clip0)">
<path d="M41.8321 39.9917L79.6222 2.20163C80.1258 1.69785 80.1258 0.881238 79.6222 0.377465C79.1184 -0.126147 78.3018 -0.126147 77.798 0.377465L40.0079 38.1676L2.21781 0.377465C1.70533 -0.117439 0.888711 -0.103248 0.393645 0.409233C-0.0891643 0.909136 -0.0891643 1.70172 0.393645 2.20163L38.1837 39.9917L0.393645 77.7818C-0.118836 78.2769 -0.133027 79.0935 0.362039 79.606C0.857104 80.1185 1.67372 80.1327 2.1862 79.6376C2.19701 79.6273 2.20749 79.6166 2.21781 79.606L40.0079 41.8159L77.798 79.606C78.3105 80.101 79.1271 80.0869 79.6222 79.5744C80.1051 79.0745 80.1051 78.2817 79.6222 77.7818L41.8321 39.9917Z" fill="#537F82"/>
</g>
<defs>
<clipPath id="clip0">
<rect width="80" height="80" fill="white"/>
</clipPath>
</defs>
</svg>
